PathFileType	4	(x/y/z)	S02_PSF_T06
DataRate	CameraRate	NumFrames	NumMarkers	Units	OrigDataRate	OrigDataStartFrame	OrigNumFrames
240	240	4	51	mm	240	306	407
Frame#	Time	Sternum			R.Acromium			L.Acromium			Top.Head			R.ASIS			L.ASIS			R.PSIS			L.PSIS			R.Great.Tro			L.Great.Tro			R.Iliac.Crest			L.Iliac.Crest			V.Sacral			R.Thigh.Upper.Post			R.Thigh.Lower.Ant			R.Thigh.Lower.Post			R.Thigh.Upper.Ant			R.Knee.Lat			R.Knee.Med			R.Shank.Upper.Post			R.Shank.Lower.Ant			R.Shank.Lower.Post			R.Shank.Upper.Ant			R.Ankle.Lat			R.Ankle.Med			R.Heel.Upper			R.Heel.Med			R.Heel.Lat			R.Toe.Lat			R.Toe.Med			R.Toe.Tip			L.Thigh.Upper.Post			L.Thigh.Lower.Ant			L.Thigh.Lower.Post			L.Thigh.Upper.Ant			L.Knee.Lat			L.Knee.Med			L.Shank.Upper.Post			L.Shank.Lower.Ant			L.Shank.Lower.Post			L.Shank.Upper.Ant			L.Ankle.Lat			L.Ankle.Med			L.Heel.Upper			L.Heel.Med			L.Heel.Lat			L.Toe.Lat			L.Toe.Med			L.Toe.Tip			Cervical.Spine			Back			
		X1	Y1	Z1	X2	Y2	Z2	X3	Y3	Z3	X4	Y4	Z4	X5	Y5	Z5	X6	Y6	Z6	X7	Y7	Z7	X8	Y8	Z8	X9	Y9	Z9	X10	Y10	Z10	X11	Y11	Z11	X12	Y12	Z12	X13	Y13	Z13	X14	Y14	Z14	X15	Y15	Z15	X16	Y16	Z16	X17	Y17	Z17	X18	Y18	Z18	X19	Y19	Z19	X20	Y20	Z20	X21	Y21	Z21	X22	Y22	Z22	X23	Y23	Z23	X24	Y24	Z24	X25	Y25	Z25	X26	Y26	Z26	X27	Y27	Z27	X28	Y28	Z28	X29	Y29	Z29	X30	Y30	Z30	X31	Y31	Z31	X32	Y32	Z32	X33	Y33	Z33	X34	Y34	Z34	X35	Y35	Z35	X36	Y36	Z36	X37	Y37	Z37	X38	Y38	Z38	X39	Y39	Z39	X40	Y40	Z40	X41	Y41	Z41	X42	Y42	Z42	X43	Y43	Z43	X44	Y44	Z44	X45	Y45	Z45	X46	Y46	Z46	X47	Y47	Z47	X48	Y48	Z48	X49	Y49	Z49	X50	Y50	Z50	X51	Y51	Z51	

306	1.2708	356.04	1091.3	297.02	246.38	1329.2	430.83	248.83	1326.2	136.43	278.58	1620.3	280.74	315.94	923.39	406.54	339.72	924.26	196.65	110.03	959.87	334.63	108.86	970.29	261.59	228.85	793.58	489.57	231.33	829.01	98.169	207.61	961.28	457.9	219.53	973.73	122.32	85.419	917.28	287.06	269.38	598.76	492.22	341.3	526.89	481.75	270.57	508.66	480.31	336.18	616.37	489.53	291.96	437.16	479.72	320.97	414.15	336.53	104.93	362.01	435.93	85.93	253.52	427.06	51.462	312.17	423.97	137.22	297.96	447.27	-7.8021	241.01	410.44	25.872	235.1	330.12	-37.691	282.6	344.82	-53.926	256.76	312.7	-71.931	267.34	373.94	-15.633	122.58	432.55	18.032	90.648	332.25	52.993	63.715	396.74	247.71	596.7	129.26	338.36	536.12	145.37	263.93	510.7	155.67	313.43	624.49	119.38	335.58	453.69	159.5	322.55	457.17	296.48	249.22	282.8	161.07	315.32	195.62	184.27	244.57	210.82	179.4	313.17	270	165.82	263.9	99.12	196.64	273.96	96.428	279.14	204.01	66.302	229.77	211.46	41.198	264.27	210.47	38.032	202.36	377.85	35.465	177.7	395.9	46.244	288.45	456.74	62.52	243.05	171.94	1391.9	283.68	96.699	1140	296.15
307	1.275	360.78	1092.4	297.16	251.07	1330.5	430.69	254.29	1327.4	136.3	284.05	1621.4	280.72	320.96	924.89	406.22	344.46	925.1	196.31	115.01	961.46	334.3	113.74	971.68	261.25	234.01	795.35	489.43	235.36	829.72	98.169	212.57	962.96	457.56	224.26	974.53	121.99	90.233	918.81	286.91	277.43	600.86	492.72	350.22	529.87	482.27	279.72	510.77	480.9	344	619.29	489.97	301.96	439.43	480.18	331.7	416.89	337.06	115.83	362.13	435.63	98.241	253.4	426.89	63.027	311.6	423.57	148.89	298.5	447.17	4.7229	239.73	409.93	38.524	234.29	329.66	-26.005	280.53	344.14	-41.693	254.27	312.07	-59.927	264.65	373.28	-0.75026	121.3	432.33	33.544	89.767	332.16	69.055	63.814	396.76	249.98	597.5	129.37	340.04	536.06	145.43	265.41	511.35	155.74	315.96	624.67	119.48	336.48	453.68	159.52	323.56	457.19	296.56	249.56	282.98	161.12	315.49	195.66	184.26	244.79	211.03	179.43	313.5	270.06	165.84	263.98	99.195	196.72	274.01	96.519	279.18	204.01	66.389	229.8	211.46	41.263	264.28	210.49	38.129	202.38	377.85	35.475	177.71	395.93	46.217	288.46	456.77	62.481	243.06	177.08	1393.2	283.32	101.58	1141.3	295.36
308	1.2792	365.5	1093.4	297.3	255.76	1331.7	430.55	259.75	1328.5	136.19	289.51	1622.5	280.72	325.98	926.41	405.86	349.18	925.94	195.94	120	963.03	334	118.63	973.04	260.93	239.2	797.13	489.29	239.37	830.41	98.195	217.56	964.65	457.22	228.97	975.31	121.66	95.053	920.32	286.79	285.43	602.96	493.2	359.07	532.85	482.74	288.81	512.89	481.46	351.77	622.2	490.38	311.88	441.71	480.61	342.37	419.67	337.56	126.71	362.1	435.36	110.63	253.14	426.74	74.626	310.84	423.2	160.59	298.92	447.07	17.356	238.2	409.46	51.244	233.29	329.24	-14.259	278.19	343.54	-29.379	251.54	311.52	-47.824	261.66	372.73	14.338	119.81	432.13	49.239	88.753	332.07	85.333	63.788	396.75	252.22	598.3	129.5	341.68	535.98	145.49	266.85	512	155.85	318.46	624.83	119.58	337.35	453.69	159.54	324.51	457.23	296.64	249.88	283.18	161.19	315.65	195.71	184.24	244.99	211.25	179.48	313.8	270.12	165.85	264.07	99.271	196.81	274.06	96.611	279.23	204.02	66.479	229.84	211.46	41.331	264.3	210.5	38.23	202.41	377.86	35.484	177.72	395.96	46.192	288.47	456.8	62.442	243.06	182.21	1394.4	282.98	106.45	1142.7	294.57
309	1.2833	370.2	1094.5	297.41	260.45	1333	430.41	265.21	1329.7	136.1	294.97	1623.5	280.75	331.01	927.95	405.47	353.89	926.78	195.56	125	964.58	333.73	123.5	974.36	260.65	244.44	798.91	489.15	243.39	831.08	98.248	222.57	966.34	456.87	233.65	976.07	121.34	99.88	921.8	286.71	293.37	605.06	493.67	367.85	535.84	483.18	297.82	515.03	482.01	359.48	625.1	490.77	321.72	443.99	481	352.94	422.47	338.02	137.57	361.91	435.12	123.1	252.73	426.61	86.26	309.89	422.87	172.33	299.22	446.98	30.097	236.42	409.05	64.036	232.11	328.86	-2.4473	275.6	343.04	-16.977	248.56	311.06	-35.614	258.39	372.28	29.628	118.11	431.94	65.119	87.617	331.97	101.82	63.649	396.7	254.43	599.09	129.66	343.27	535.9	145.56	268.26	512.65	155.98	320.92	624.97	119.68	338.19	453.7	159.57	325.43	457.28	296.73	250.16	283.39	161.28	315.79	195.77	184.21	245.17	211.48	179.55	314.07	270.2	165.86	264.16	99.346	196.91	274.12	96.705	279.28	204.02	66.572	229.87	211.45	41.4	264.32	210.52	38.336	202.44	377.87	35.494	177.74	395.99	46.168	288.47	456.83	62.402	243.07	187.34	1395.6	282.64	111.31	1144	293.8
